# This file uses centimeters as units for non-parametric coordinates.

v 0.934172 -0.356822 -0.000000
v 0.934172 0.356822 0.000000
v 0.356822 0.000000 -0.934172
v 0.577350 0.577350 -0.577350
v 0.577350 -0.577350 -0.577350
v 0.356822 -0.000000 0.934172
v 0.577350 -0.577350 0.577350
v 0.577350 0.577350 0.577350
v -0.934172 -0.356822 -0.000000
v -0.934172 0.356822 0.000000
v -0.356822 -0.000000 0.934172
v -0.577350 -0.577350 0.577350
v -0.577350 0.577350 0.577350
v -0.356822 0.000000 -0.934172
v -0.577350 0.577350 -0.577350
v -0.577350 -0.577350 -0.577350
v 0.000000 -0.934172 0.356822
v 0.000000 0.934172 0.356822
v 0.000000 0.934172 -0.356822
v 0.000000 -0.934172 -0.356822
vt 0.099106 0.250000
vt 0.221609 0.250000
vt 0.259464 0.368034
vt 0.160357 0.440983
vt 0.061251 0.368034
vt 0.037855 0.440983
vt 0.198213 0.559017
vt 0.099106 0.631966
vt 0.000000 0.559017
vt 0.320715 0.559017
vt 0.358570 0.677051
vt 0.259464 0.750000
vt 0.160357 0.677051
vt 0.358570 0.440983
vt 0.481072 0.440983
vt 0.518928 0.559017
vt 0.419821 0.631966
vt 0.297319 0.250000
vt 0.419821 0.250000
vt 0.457677 0.368034
vt 0.740536 0.250000
vt 0.839643 0.322949
vt 0.801787 0.440983
vt 0.679285 0.440983
vt 0.641430 0.322949
vt 0.580179 0.368034
vt 0.641430 0.559017
vt 0.740536 0.631966
vt 0.702681 0.750000
vt 0.580179 0.750000
vt 0.542323 0.631966
vt 0.839643 0.559017
vt 0.938749 0.631966
vt 0.900894 0.750000
vt 0.778391 0.750000
vt 0.900894 0.368034
vt 1.000000 0.440983
vt 0.962145 0.559017
vn 0.934172 -0.356822 0.000000
vn 0.671480 -0.630351 -0.389579
vn 0.988776 0.149406 0.000000
vn 0.671480 -0.630351 -0.389579
vn 0.348450 -0.215354 -0.912253
vn 0.988776 0.149406 0.000000
vn 0.348450 -0.215354 -0.912253
vn 0.389579 0.671480 -0.630351
vn 0.988776 0.149406 0.000000
vn 0.584370 0.740783 0.331288
vn 0.348450 0.215354 0.912253
vn 0.988776 0.149406 0.000000
vn 0.348450 0.215354 0.912253
vn 0.491951 -0.585905 0.643972
vn 0.988776 0.149406 0.000000
vn 0.491951 -0.585905 0.643972
vn 0.934172 -0.356822 0.000000
vn 0.988776 0.149406 0.000000
vn 0.934172 -0.356822 0.000000
vn 0.491951 -0.585905 0.643972
vn 0.671480 -0.630351 -0.389579
vn 0.491951 -0.585905 0.643972
vn 0.162460 -0.951057 0.262866
vn 0.671480 -0.630351 -0.389579
vn 0.162460 -0.951057 0.262866
vn -0.215354 -0.912253 -0.348450
vn 0.671480 -0.630351 -0.389579
vn 0.348450 0.215354 0.912253
vn -0.423275 -0.130799 0.896510
vn 0.491951 -0.585905 0.643972
vn -0.423275 -0.130799 0.896510
vn -0.577350 -0.577350 0.577350
vn 0.491951 -0.585905 0.643972
vn -0.577350 -0.577350 0.577350
vn 0.162460 -0.951057 0.262866
vn 0.491951 -0.585905 0.643972
vn 0.162460 -0.951057 0.262866
vn -0.577350 -0.577350 0.577350
vn -0.215354 -0.912253 -0.348450
vn -0.577350 -0.577350 0.577350
vn -0.912253 -0.348450 -0.215354
vn -0.215354 -0.912253 -0.348450
vn -0.912253 -0.348450 -0.215354
vn -0.425325 -0.587785 -0.688191
vn -0.215354 -0.912253 -0.348450
vn 0.671480 -0.630351 -0.389579
vn -0.215354 -0.912253 -0.348450
vn 0.348450 -0.215354 -0.912253
vn -0.215354 -0.912253 -0.348450
vn -0.425325 -0.587785 -0.688191
vn 0.348450 -0.215354 -0.912253
vn -0.425325 -0.587785 -0.688191
vn -0.423275 0.130799 -0.896510
vn 0.348450 -0.215354 -0.912253
vn 0.348450 -0.215354 -0.912253
vn -0.423275 0.130799 -0.896510
vn 0.389579 0.671480 -0.630351
vn -0.423275 0.130799 -0.896510
vn -0.585905 0.643972 -0.491951
vn 0.389579 0.671480 -0.630351
vn -0.585905 0.643972 -0.491951
vn 0.162460 0.951057 -0.262866
vn 0.389579 0.671480 -0.630351
vn 0.988776 0.149406 0.000000
vn 0.389579 0.671480 -0.630351
vn 0.584370 0.740783 0.331288
vn 0.389579 0.671480 -0.630351
vn 0.162460 0.951057 -0.262866
vn 0.584370 0.740783 0.331288
vn 0.162460 0.951057 -0.262866
vn -0.130799 0.896510 0.423275
vn 0.584370 0.740783 0.331288
vn 0.584370 0.740783 0.331288
vn -0.130799 0.896510 0.423275
vn 0.348450 0.215354 0.912253
vn -0.130799 0.896510 0.423275
vn -0.473235 0.684873 0.554074
vn 0.348450 0.215354 0.912253
vn -0.473235 0.684873 0.554074
vn -0.423275 -0.130799 0.896510
vn 0.348450 0.215354 0.912253
vn -0.912253 -0.348450 -0.215354
vn -0.577350 -0.577350 0.577350
vn -0.945531 0.204747 0.253082
vn -0.577350 -0.577350 0.577350
vn -0.423275 -0.130799 0.896510
vn -0.945531 0.204747 0.253082
vn -0.423275 -0.130799 0.896510
vn -0.473235 0.684873 0.554074
vn -0.945531 0.204747 0.253082
vn -0.945531 0.204747 0.253082
vn -0.473235 0.684873 0.554074
vn -0.585905 0.643972 -0.491951
vn -0.473235 0.684873 0.554074
vn -0.130799 0.896510 0.423275
vn -0.585905 0.643972 -0.491951
vn -0.130799 0.896510 0.423275
vn 0.162460 0.951057 -0.262866
vn -0.585905 0.643972 -0.491951
vn -0.945531 0.204747 0.253082
vn -0.585905 0.643972 -0.491951
vn -0.912253 -0.348450 -0.215354
vn -0.585905 0.643972 -0.491951
vn -0.423275 0.130799 -0.896510
vn -0.912253 -0.348450 -0.215354
vn -0.423275 0.130799 -0.896510
vn -0.425325 -0.587785 -0.688191
vn -0.912253 -0.348450 -0.215354
f 1/7/1 5/8/2 2/4/3
f 5/8/4 3/9/5 2/4/6
f 3/9/7 4/6/8 2/4/9
f 8/3/10 6/14/11 2/4/12
f 6/14/13 7/10/14 2/4/15
f 7/10/16 1/7/17 2/4/18
f 1/7/19 7/10/20 5/13/21
f 7/10/22 17/11/23 5/13/24
f 17/11/25 20/12/26 5/13/27
f 6/14/28 11/15/29 7/10/30
f 11/15/31 12/16/32 7/10/33
f 12/16/34 17/17/35 7/10/36
f 17/30/37 12/31/38 20/29/39
f 12/31/40 9/27/41 20/29/42
f 9/27/43 16/28/44 20/29/45
f 5/34/46 20/35/47 3/33/48
f 20/35/49 16/28/50 3/33/51
f 16/28/52 14/32/53 3/33/54
f 3/38/55 14/32/56 4/37/57
f 14/32/58 15/23/59 4/37/60
f 15/23/61 19/36/62 4/37/63
f 2/4/64 4/5/65 8/3/66
f 4/5/67 19/1/68 8/3/69
f 19/1/70 18/2/71 8/3/72
f 8/3/73 18/18/74 6/14/75
f 18/18/76 13/19/77 6/14/78
f 13/19/79 11/20/80 6/14/81
f 9/27/82 12/16/83 10/24/84
f 12/16/85 11/15/86 10/24/87
f 11/15/88 13/26/89 10/24/90
f 10/24/91 13/25/92 15/23/93
f 13/25/94 18/21/95 15/23/96
f 18/21/97 19/22/98 15/23/99
f 10/24/100 15/23/101 9/27/102
f 15/23/103 14/32/104 9/27/105
f 14/32/106 16/28/107 9/27/108
