# This file uses centimeters as units for non-parametric coordinates.

v 0.000000 1.000000 0.000000
v 0.395248 0.918574 0.000000
v -0.222786 0.918574 -0.326477
v -0.144097 0.918574 0.368045
v 0.567710 0.755723 -0.326477
v 0.495428 0.786825 0.368045
v -0.589668 0.755723 -0.284910
v -0.050324 0.755723 -0.652955
v 0.162095 0.786825 0.595509
v -0.510979 0.755723 0.409613
v 0.840353 0.461122 -0.284910
v 0.344925 0.674298 -0.652955
v 0.768071 0.492224 0.409613
v -0.643952 0.492224 -0.585696
v -0.733765 0.674298 0.083135
v -0.310619 0.492224 -0.813161
v 0.101404 0.492224 0.864542
v -0.571670 0.461122 0.678644
v 0.786069 0.197624 -0.585696
v 0.940533 0.329373 0.083135
v 0.479878 0.329373 -0.813161
v 0.707379 0.197624 0.678644
v -0.842332 0.147301 -0.518439
v -0.932145 0.329373 0.150394
v -0.175666 0.147301 -0.973367
v 0.374046 0.197624 0.906110
v -0.265479 0.329373 0.906110
v -0.831965 0.197624 0.518439
v 0.831965 -0.197624 -0.518439
v 0.986425 -0.065875 0.150394
v 0.219582 0.065875 -0.973367
v 0.842332 -0.147301 0.518439
v -0.707379 -0.197624 -0.678644
v -0.986425 0.065875 -0.150394
v -0.374046 -0.197624 -0.906110
v 0.175666 -0.147301 0.973367
v -0.219582 -0.065875 0.973367
v -0.786069 -0.197624 0.585696
v 0.571670 -0.461122 -0.678644
v 0.932145 -0.329373 -0.150394
v 0.265479 -0.329373 -0.906110
v 0.643952 -0.492224 0.585696
v -0.768071 -0.492224 -0.409613
v -0.940533 -0.329373 -0.083135
v -0.101404 -0.492224 -0.864542
v 0.310619 -0.492224 0.813161
v -0.479878 -0.329373 0.813161
v -0.840353 -0.461122 0.284910
v 0.510979 -0.755723 -0.409613
v 0.733765 -0.674298 -0.083135
v 0.589668 -0.755723 0.284910
v -0.495428 -0.786825 -0.368045
v -0.162095 -0.786825 -0.595509
v 0.050324 -0.755723 0.652955
v -0.344925 -0.674298 0.652955
v -0.567710 -0.755723 0.326477
v 0.144097 -0.918574 -0.368045
v 0.222786 -0.918574 0.326477
v -0.395248 -0.918574 -0.000000
v 0.000000 -1.000000 -0.000000
vt 0.032258 0.299280
vt 0.096774 0.299280
vt 0.129032 0.355153
vt 0.096774 0.411025
vt 0.032258 0.411025
vt 0.000000 0.355153
vt 0.225806 0.299280
vt 0.290323 0.299280
vt 0.322581 0.355153
vt 0.290323 0.411025
vt 0.225806 0.411025
vt 0.193548 0.355153
vt 0.419355 0.299280
vt 0.483871 0.299280
vt 0.516129 0.355153
vt 0.483871 0.411025
vt 0.419355 0.411025
vt 0.387097 0.355153
vt 0.612903 0.299280
vt 0.677419 0.299280
vt 0.709677 0.355153
vt 0.677419 0.411025
vt 0.612903 0.411025
vt 0.580645 0.355153
vt 0.806452 0.299280
vt 0.870968 0.299280
vt 0.903226 0.355153
vt 0.870968 0.411025
vt 0.806452 0.411025
vt 0.774194 0.355153
vt 0.903226 0.466898
vt 0.870968 0.522771
vt 0.806452 0.522771
vt 0.774194 0.466898
vt 0.709677 0.466898
vt 0.677419 0.522771
vt 0.612903 0.522771
vt 0.580645 0.466898
vt 0.516129 0.466898
vt 0.483871 0.522771
vt 0.419355 0.522771
vt 0.387097 0.466898
vt 0.322581 0.466898
vt 0.290323 0.522771
vt 0.225806 0.522771
vt 0.193548 0.466898
vt 0.129032 0.466898
vt 0.096774 0.522771
vt 0.032258 0.522771
vt 0.000000 0.466898
vt 0.193548 0.578643
vt 0.129032 0.578643
vt 0.387097 0.578643
vt 0.322581 0.578643
vt 0.580645 0.578643
vt 0.516129 0.578643
vt 0.774194 0.578643
vt 0.709677 0.578643
vt 0.967742 0.466898
vt 1.000000 0.522771
vt 0.967742 0.578643
vt 0.903226 0.578643
vt 1.000000 0.634516
vt 0.967742 0.690388
vt 0.903226 0.690388
vt 0.870968 0.634516
vt 0.806452 0.634516
vt 0.774194 0.690388
vt 0.709677 0.690388
vt 0.677419 0.634516
vt 0.612903 0.634516
vt 0.580645 0.690388
vt 0.516129 0.690388
vt 0.483871 0.634516
vt 0.419355 0.634516
vt 0.387097 0.690388
vt 0.322581 0.690388
vt 0.290323 0.634516
vt 0.225806 0.634516
vt 0.193548 0.690388
vt 0.129032 0.690388
vt 0.096774 0.634516
vt 0.116711 0.584129
vt 0.064516 0.622051
vt 0.012321 0.584129
vt 0.310259 0.584129
vt 0.258065 0.622051
vt 0.205870 0.584129
vt 0.503808 0.584129
vt 0.451613 0.622051
vt 0.399418 0.584129
vt 0.697356 0.584129
vt 0.645161 0.622051
vt 0.592967 0.584129
vt 0.890904 0.584129
vt 0.838710 0.622051
vt 0.786515 0.584129
vt 0.213485 0.751747
vt 0.161290 0.789669
vt 0.109096 0.751747
vt 0.109096 0.405539
vt 0.161290 0.367618
vt 0.213485 0.405539
vt 0.302644 0.405539
vt 0.354839 0.367618
vt 0.407033 0.405539
vt 0.496192 0.405539
vt 0.548387 0.367618
vt 0.600582 0.405539
vt 0.689741 0.405539
vt 0.741935 0.367618
vt 0.794130 0.405539
vt 0.883289 0.405539
vt 0.935484 0.367618
vt 0.987679 0.405539
vt 0.205870 0.237922
vt 0.258065 0.200000
vt 0.310259 0.237922
vn 0.188493 0.914957 -0.356824
vn 0.188493 0.914957 -0.356824
vn 0.188493 0.914957 -0.356824
vn 0.188494 0.914958 -0.356821
vn 0.188494 0.914958 -0.356821
vn 0.188494 0.914958 -0.356821
vn 0.188491 0.914959 -0.356821
vn 0.188491 0.914959 -0.356821
vn 0.188491 0.914959 -0.356821
vn 0.188491 0.914959 -0.356822
vn 0.188491 0.914959 -0.356822
vn 0.188491 0.914959 -0.356822
vn -0.400985 0.914958 0.045431
vn -0.400985 0.914958 0.045431
vn -0.400985 0.914958 0.045431
vn -0.400983 0.914958 0.045430
vn -0.400983 0.914958 0.045430
vn -0.400983 0.914958 0.045430
vn -0.400982 0.914959 0.045431
vn -0.400982 0.914959 0.045431
vn -0.400982 0.914959 0.045431
vn -0.400983 0.914958 0.045432
vn -0.400983 0.914958 0.045432
vn -0.400983 0.914958 0.045432
vn 0.193492 0.939234 0.283551
vn 0.193492 0.939234 0.283551
vn 0.193492 0.939234 0.283551
vn 0.193493 0.939233 0.283551
vn 0.193493 0.939233 0.283551
vn 0.193493 0.939233 0.283551
vn 0.193494 0.939234 0.283549
vn 0.193494 0.939234 0.283549
vn 0.193494 0.939234 0.283549
vn 0.729968 0.681970 0.045432
vn 0.729968 0.681970 0.045432
vn 0.729968 0.681970 0.045432
vn 0.729967 0.681970 0.045431
vn 0.729967 0.681970 0.045431
vn 0.729967 0.681970 0.045431
vn 0.729968 0.681970 0.045431
vn 0.729968 0.681970 0.045431
vn 0.729968 0.681970 0.045431
vn 0.729968 0.681970 0.045431
vn 0.729968 0.681970 0.045431
vn 0.729968 0.681970 0.045431
vn -0.386987 0.727076 -0.567100
vn -0.386987 0.727076 -0.567100
vn -0.386987 0.727076 -0.567100
vn -0.386986 0.727076 -0.567100
vn -0.386986 0.727076 -0.567100
vn -0.386986 0.727076 -0.567100
vn -0.386985 0.727076 -0.567101
vn -0.386985 0.727076 -0.567101
vn -0.386985 0.727076 -0.567101
vn -0.223821 0.681969 0.696293
vn -0.223821 0.681969 0.696293
vn -0.223821 0.681969 0.696293
vn -0.223822 0.681972 0.696289
vn -0.223822 0.681972 0.696289
vn -0.223822 0.681972 0.696289
vn -0.223823 0.681970 0.696291
vn -0.223823 0.681970 0.696291
vn -0.223823 0.681970 0.696291
vn -0.223821 0.681970 0.696291
vn -0.223821 0.681970 0.696291
vn -0.223821 0.681970 0.696291
vn 0.642850 0.514920 -0.567098
vn 0.642850 0.514920 -0.567098
vn 0.642850 0.514920 -0.567098
vn 0.642851 0.514917 -0.567101
vn 0.642851 0.514917 -0.567101
vn 0.642851 0.514917 -0.567101
vn 0.642851 0.514917 -0.567101
vn 0.642851 0.514917 -0.567101
vn 0.642851 0.514917 -0.567101
vn 0.475144 0.537976 0.696290
vn 0.475144 0.537976 0.696290
vn 0.475144 0.537976 0.696290
vn 0.475143 0.537975 0.696291
vn 0.475143 0.537975 0.696291
vn 0.475143 0.537975 0.696291
vn 0.475147 0.537972 0.696291
vn 0.475147 0.537972 0.696291
vn 0.475147 0.537972 0.696291
vn 0.475144 0.537975 0.696291
vn 0.475144 0.537975 0.696291
vn 0.475144 0.537975 0.696291
vn -0.861294 0.448983 -0.237882
vn -0.861294 0.448983 -0.237882
vn -0.861294 0.448983 -0.237882
vn -0.861296 0.448984 -0.237872
vn -0.861296 0.448984 -0.237872
vn -0.861296 0.448984 -0.237872
vn -0.861297 0.448976 -0.237881
vn -0.861297 0.448976 -0.237881
vn -0.861297 0.448976 -0.237881
vn -0.861294 0.448978 -0.237889
vn -0.861294 0.448978 -0.237889
vn -0.861294 0.448978 -0.237889
vn 0.092494 0.448980 -0.888742
vn 0.092494 0.448980 -0.888742
vn 0.092494 0.448980 -0.888742
vn 0.092498 0.448980 -0.888741
vn 0.092498 0.448980 -0.888741
vn 0.092498 0.448980 -0.888741
vn 0.092496 0.448982 -0.888740
vn 0.092496 0.448982 -0.888740
vn 0.092496 0.448982 -0.888740
vn 0.092494 0.448981 -0.888741
vn 0.092494 0.448981 -0.888741
vn 0.092494 0.448981 -0.888741
vn -0.762436 0.514916 0.391857
vn -0.762436 0.514916 0.391857
vn -0.762436 0.514916 0.391857
vn -0.762436 0.514917 0.391858
vn -0.762436 0.514917 0.391858
vn -0.762436 0.514917 0.391858
vn -0.762435 0.514918 0.391857
vn -0.762435 0.514918 0.391857
vn -0.762435 0.514918 0.391857
vn 0.968622 0.071986 -0.237885
vn 0.968622 0.071986 -0.237885
vn 0.968622 0.071986 -0.237885
vn 0.968622 0.072008 -0.237878
vn 0.968622 0.072008 -0.237878
vn 0.968622 0.072008 -0.237878
vn 0.968622 0.071997 -0.237882
vn 0.968622 0.071997 -0.237882
vn 0.968622 0.071997 -0.237882
vn 0.968624 0.071995 -0.237876
vn 0.968624 0.071995 -0.237876
vn 0.968624 0.071995 -0.237876
vn 0.903873 0.171639 0.391859
vn 0.903873 0.171639 0.391859
vn 0.903873 0.171639 0.391859
vn 0.903878 0.171638 0.391849
vn 0.903878 0.171638 0.391849
vn 0.903878 0.171638 0.391849
vn 0.903874 0.171631 0.391861
vn 0.903874 0.171631 0.391861
vn 0.903874 0.171631 0.391861
vn -0.556309 0.160992 -0.815232
vn -0.556309 0.160992 -0.815232
vn -0.556309 0.160992 -0.815232
vn -0.556309 0.160992 -0.815232
vn -0.556309 0.160992 -0.815232
vn -0.556309 0.160992 -0.815232
vn -0.556309 0.160992 -0.815232
vn -0.556309 0.160992 -0.815232
vn -0.556309 0.160992 -0.815232
vn -0.556310 0.160988 -0.815231
vn -0.556310 0.160988 -0.815231
vn -0.556310 0.160988 -0.815231
vn 0.035360 0.171638 0.984525
vn 0.035360 0.171638 0.984525
vn 0.035360 0.171638 0.984525
vn 0.035361 0.171639 0.984525
vn 0.035361 0.171639 0.984525
vn 0.035361 0.171639 0.984525
vn 0.035358 0.171639 0.984525
vn 0.035358 0.171639 0.984525
vn 0.035358 0.171639 0.984525
vn -0.574641 0.071997 0.815233
vn -0.574641 0.071997 0.815233
vn -0.574641 0.071997 0.815233
vn -0.574642 0.071999 0.815232
vn -0.574642 0.071999 0.815232
vn -0.574642 0.071999 0.815232
vn -0.574646 0.071995 0.815230
vn -0.574646 0.071995 0.815230
vn -0.574646 0.071995 0.815230
vn -0.574642 0.071998 0.815232
vn -0.574642 0.071998 0.815232
vn -0.574642 0.071998 0.815232
vn 0.574641 -0.071997 -0.815233
vn 0.574641 -0.071997 -0.815233
vn 0.574641 -0.071997 -0.815233
vn 0.574645 -0.071995 -0.815230
vn 0.574645 -0.071995 -0.815230
vn 0.574645 -0.071995 -0.815230
vn 0.574642 -0.071998 -0.815232
vn 0.574642 -0.071998 -0.815232
vn 0.574642 -0.071998 -0.815232
vn 0.574642 -0.071999 -0.815232
vn 0.574642 -0.071999 -0.815232
vn 0.574642 -0.071999 -0.815232
vn 0.556310 -0.160988 0.815231
vn 0.556310 -0.160988 0.815231
vn 0.556310 -0.160988 0.815231
vn 0.556309 -0.160992 0.815231
vn 0.556309 -0.160992 0.815231
vn 0.556309 -0.160992 0.815231
vn 0.556309 -0.160992 0.815232
vn 0.556309 -0.160992 0.815232
vn 0.556309 -0.160992 0.815232
vn 0.556309 -0.160992 0.815232
vn 0.556309 -0.160992 0.815232
vn 0.556309 -0.160992 0.815232
vn -0.903876 -0.171644 -0.391850
vn -0.903876 -0.171644 -0.391850
vn -0.903876 -0.171644 -0.391850
vn -0.903876 -0.171635 -0.391855
vn -0.903876 -0.171635 -0.391855
vn -0.903876 -0.171635 -0.391855
vn -0.903874 -0.171631 -0.391861
vn -0.903874 -0.171631 -0.391861
vn -0.903874 -0.171631 -0.391861
vn -0.968627 -0.071991 0.237864
vn -0.968627 -0.071991 0.237864
vn -0.968627 -0.071991 0.237864
vn -0.968622 -0.071996 0.237882
vn -0.968622 -0.071996 0.237882
vn -0.968622 -0.071996 0.237882
vn -0.968622 -0.071997 0.237882
vn -0.968622 -0.071997 0.237882
vn -0.968622 -0.071997 0.237882
vn -0.968622 -0.071997 0.237882
vn -0.968622 -0.071997 0.237882
vn -0.968622 -0.071997 0.237882
vn -0.035360 -0.171638 -0.984525
vn -0.035360 -0.171638 -0.984525
vn -0.035360 -0.171638 -0.984525
vn -0.035359 -0.171638 -0.984525
vn -0.035359 -0.171638 -0.984525
vn -0.035359 -0.171638 -0.984525
vn -0.035360 -0.171640 -0.984525
vn -0.035360 -0.171640 -0.984525
vn -0.035360 -0.171640 -0.984525
vn 0.762436 -0.514917 -0.391857
vn 0.762436 -0.514917 -0.391857
vn 0.762436 -0.514917 -0.391857
vn 0.762436 -0.514917 -0.391857
vn 0.762436 -0.514917 -0.391857
vn 0.762436 -0.514917 -0.391857
vn 0.762435 -0.514917 -0.391859
vn 0.762435 -0.514917 -0.391859
vn 0.762435 -0.514917 -0.391859
vn 0.861302 -0.448968 0.237878
vn 0.861302 -0.448968 0.237878
vn 0.861302 -0.448968 0.237878
vn 0.861295 -0.448981 0.237881
vn 0.861295 -0.448981 0.237881
vn 0.861295 -0.448981 0.237881
vn 0.861295 -0.448982 0.237881
vn 0.861295 -0.448982 0.237881
vn 0.861295 -0.448982 0.237881
vn 0.861295 -0.448979 0.237883
vn 0.861295 -0.448979 0.237883
vn 0.861295 -0.448979 0.237883
vn -0.475147 -0.537972 -0.696291
vn -0.475147 -0.537972 -0.696291
vn -0.475147 -0.537972 -0.696291
vn -0.475143 -0.537975 -0.696291
vn -0.475143 -0.537975 -0.696291
vn -0.475143 -0.537975 -0.696291
vn -0.475144 -0.537975 -0.696291
vn -0.475144 -0.537975 -0.696291
vn -0.475144 -0.537975 -0.696291
vn -0.475144 -0.537976 -0.696290
vn -0.475144 -0.537976 -0.696290
vn -0.475144 -0.537976 -0.696290
vn -0.092496 -0.448982 0.888740
vn -0.092496 -0.448982 0.888740
vn -0.092496 -0.448982 0.888740
vn -0.092498 -0.448980 0.888741
vn -0.092498 -0.448980 0.888741
vn -0.092498 -0.448980 0.888741
vn -0.092494 -0.448980 0.888742
vn -0.092494 -0.448980 0.888742
vn -0.092494 -0.448980 0.888742
vn -0.092494 -0.448981 0.888741
vn -0.092494 -0.448981 0.888741
vn -0.092494 -0.448981 0.888741
vn -0.642849 -0.514918 0.567102
vn -0.642849 -0.514918 0.567102
vn -0.642849 -0.514918 0.567102
vn -0.642852 -0.514918 0.567099
vn -0.642852 -0.514918 0.567099
vn -0.642852 -0.514918 0.567099
vn -0.642851 -0.514917 0.567101
vn -0.642851 -0.514917 0.567101
vn -0.642851 -0.514917 0.567101
vn 0.223821 -0.681969 -0.696293
vn 0.223821 -0.681969 -0.696293
vn 0.223821 -0.681969 -0.696293
vn 0.223821 -0.681970 -0.696291
vn 0.223821 -0.681970 -0.696291
vn 0.223821 -0.681970 -0.696291
vn 0.223823 -0.681970 -0.696291
vn 0.223823 -0.681970 -0.696291
vn 0.223823 -0.681970 -0.696291
vn 0.223822 -0.681972 -0.696289
vn 0.223822 -0.681972 -0.696289
vn 0.223822 -0.681972 -0.696289
vn 0.386986 -0.727076 0.567101
vn 0.386986 -0.727076 0.567101
vn 0.386986 -0.727076 0.567101
vn 0.386986 -0.727076 0.567101
vn 0.386986 -0.727076 0.567101
vn 0.386986 -0.727076 0.567101
vn 0.386985 -0.727077 0.567099
vn 0.386985 -0.727077 0.567099
vn 0.386985 -0.727077 0.567099
vn -0.729968 -0.681970 -0.045432
vn -0.729968 -0.681970 -0.045432
vn -0.729968 -0.681970 -0.045432
vn -0.729968 -0.681970 -0.045431
vn -0.729968 -0.681970 -0.045431
vn -0.729968 -0.681970 -0.045431
vn -0.729967 -0.681970 -0.045431
vn -0.729967 -0.681970 -0.045431
vn -0.729967 -0.681970 -0.045431
vn -0.729968 -0.681970 -0.045431
vn -0.729968 -0.681970 -0.045431
vn -0.729968 -0.681970 -0.045431
vn 0.400983 -0.914958 -0.045432
vn 0.400983 -0.914958 -0.045432
vn 0.400983 -0.914958 -0.045432
vn 0.400983 -0.914958 -0.045430
vn 0.400983 -0.914958 -0.045430
vn 0.400983 -0.914958 -0.045430
vn 0.400982 -0.914959 -0.045431
vn 0.400982 -0.914959 -0.045431
vn 0.400982 -0.914959 -0.045431
vn 0.400985 -0.914958 -0.045431
vn 0.400985 -0.914958 -0.045431
vn 0.400985 -0.914958 -0.045431
vn -0.193493 -0.939234 -0.283550
vn -0.193493 -0.939234 -0.283550
vn -0.193493 -0.939234 -0.283550
vn -0.193493 -0.939234 -0.283550
vn -0.193493 -0.939234 -0.283550
vn -0.193493 -0.939234 -0.283550
vn -0.193494 -0.939233 -0.283552
vn -0.193494 -0.939233 -0.283552
vn -0.193494 -0.939233 -0.283552
vn -0.188491 -0.914959 0.356822
vn -0.188491 -0.914959 0.356822
vn -0.188491 -0.914959 0.356822
vn -0.188494 -0.914958 0.356821
vn -0.188494 -0.914958 0.356821
vn -0.188494 -0.914958 0.356821
vn -0.188491 -0.914959 0.356821
vn -0.188491 -0.914959 0.356821
vn -0.188491 -0.914959 0.356821
vn -0.188493 -0.914957 0.356824
vn -0.188493 -0.914957 0.356824
vn -0.188493 -0.914957 0.356824
f 1/17/1 2/18/2 3/16/3
f 5/13/4 12/14/5 2/18/6
f 2/18/7 12/14/8 3/16/9
f 12/14/10 8/15/11 3/16/12
f 1/17/13 3/16/14 4/42/15
f 7/39/16 15/40/17 3/16/18
f 3/16/19 15/40/20 4/42/21
f 15/40/22 10/41/23 4/42/24
f 4/42/25 9/43/26 1/106/27
f 9/43/28 6/104/29 1/106/30
f 6/104/31 2/105/32 1/106/33
f 6/10/34 13/11/35 2/9/36
f 20/12/37 11/7/38 13/11/39
f 5/8/40 2/9/41 11/7/42
f 13/11/43 11/7/44 2/9/45
f 8/108/46 16/109/47 3/107/48
f 16/109/49 14/38/50 3/107/51
f 14/38/52 7/39/53 3/107/54
f 10/41/55 18/53/56 4/42/57
f 27/54/58 17/44/59 18/53/60
f 18/53/61 17/44/62 4/42/63
f 17/44/64 9/43/65 4/42/66
f 5/7/67 11/116/68 12/8/69
f 11/116/70 19/117/71 12/8/72
f 19/117/73 21/118/74 12/8/75
f 6/10/76 9/43/77 13/11/78
f 17/44/79 26/45/80 9/43/81
f 22/46/82 13/11/83 26/45/84
f 9/43/85 26/45/86 13/11/87
f 7/39/88 14/38/89 15/40/90
f 23/37/91 34/55/92 14/38/93
f 14/38/94 34/55/95 15/40/96
f 34/55/97 24/56/98 15/40/99
f 8/24/100 12/19/101 16/23/102
f 21/20/103 31/21/104 12/19/105
f 25/22/106 16/23/107 31/21/108
f 12/19/109 31/21/110 16/23/111
f 10/41/112 15/40/113 18/91/114
f 15/40/115 24/89/116 18/91/117
f 24/89/118 28/90/119 18/91/120
f 20/3/121 30/4/122 11/2/123
f 40/5/124 29/6/125 30/4/126
f 19/1/127 11/2/128 29/6/129
f 30/4/130 29/6/131 11/2/132
f 22/46/133 32/47/134 13/103/135
f 32/47/136 30/101/137 13/103/138
f 30/101/139 20/102/140 13/103/141
f 14/38/142 16/23/143 23/37/144
f 25/22/145 35/35/146 16/23/147
f 16/23/148 35/35/149 23/37/150
f 35/35/151 33/36/152 23/37/153
f 27/86/154 37/87/155 17/44/156
f 37/87/157 36/88/158 17/44/159
f 36/88/160 26/45/161 17/44/162
f 28/75/163 38/76/164 18/53/165
f 47/77/166 37/78/167 38/76/168
f 27/54/169 18/53/170 37/78/171
f 38/76/172 37/78/173 18/53/174
f 29/27/175 39/28/176 19/26/177
f 41/29/178 31/30/179 39/28/180
f 39/28/181 31/30/182 19/26/183
f 31/30/184 21/25/185 19/26/186
f 22/46/187 26/45/188 32/47/189
f 36/51/190 46/52/191 26/45/192
f 42/48/193 32/47/194 46/52/195
f 26/45/196 46/52/197 32/47/198
f 23/37/199 33/36/200 34/94/201
f 33/36/202 43/92/203 34/94/204
f 43/92/205 44/93/206 34/94/207
f 34/55/208 44/71/209 24/56/210
f 48/72/211 38/73/212 44/71/213
f 44/71/214 38/73/215 24/56/216
f 38/73/217 28/74/218 24/56/219
f 25/110/220 31/111/221 35/35/222
f 31/111/223 41/112/224 35/35/225
f 41/112/226 45/34/227 35/35/228
f 40/115/229 50/59/230 29/114/231
f 50/59/232 49/31/233 29/114/234
f 49/31/235 39/113/236 29/114/237
f 30/4/238 32/47/239 40/5/240
f 42/48/241 51/49/242 32/47/243
f 32/47/244 51/49/245 40/5/246
f 51/49/247 50/50/248 40/5/249
f 33/36/250 35/35/251 43/58/252
f 45/34/253 53/33/254 35/35/255
f 35/35/256 53/33/257 43/58/258
f 53/33/259 52/57/260 43/58/261
f 36/51/262 37/79/263 46/52/264
f 47/80/265 55/81/266 37/79/267
f 54/82/268 46/52/269 55/81/270
f 37/79/271 55/81/272 46/52/273
f 48/99/274 56/100/275 38/98/276
f 56/100/277 55/81/278 38/98/279
f 55/81/280 47/80/281 38/98/282
f 49/31/283 57/32/284 39/28/285
f 53/33/286 45/34/287 57/32/288
f 57/32/289 45/34/290 39/28/291
f 45/34/292 41/29/293 39/28/294
f 42/48/295 46/83/296 51/49/297
f 46/83/298 54/84/299 51/49/300
f 54/84/301 58/85/302 51/49/303
f 52/57/304 59/67/305 43/58/306
f 56/68/307 48/69/308 59/67/309
f 44/70/310 43/58/311 48/69/312
f 59/67/313 48/69/314 43/58/315
f 49/31/316 50/59/317 57/32/318
f 51/60/319 58/61/320 50/59/321
f 50/59/322 58/61/323 57/32/324
f 58/61/325 60/62/326 57/32/327
f 52/97/328 53/33/329 59/96/330
f 53/33/331 57/32/332 59/96/333
f 57/32/334 60/95/335 59/96/336
f 54/63/337 55/64/338 58/61/339
f 56/65/340 59/66/341 55/64/342
f 55/64/343 59/66/344 58/61/345
f 59/66/346 60/62/347 58/61/348
